<?xml version="1.0" encoding="UTF-8" standalone="no"?>
<!DOCTYPE svg PUBLIC "-//W3C//DTD SVG 1.1//EN"
 "http://www.w3.org/Graphics/SVG/1.1/DTD/svg11.dtd">
<!-- Generated by graphviz version 2.44.0 (20200408.0750)
 -->
<!-- Title: dependency&#45;cruiser output Pages: 1 -->
<svg width="667pt" height="274pt"
 viewBox="0.00 0.00 666.53 274.00" xmlns="http://www.w3.org/2000/svg" xmlns:xlink="http://www.w3.org/1999/xlink">
<g id="graph0" class="graph" transform="scale(1 1) rotate(0) translate(4 270)">
<title>dependency&#45;cruiser output</title>
<polygon fill="white" stroke="transparent" points="-4,4 -4,-270 662.53,-270 662.53,4 -4,4"/>
<g id="clust1" class="cluster">
<title>cluster_client</title>
<path fill="#ffffff" stroke="black" stroke-width="2" d="M20,-8C20,-8 638.53,-8 638.53,-8 644.53,-8 650.53,-14 650.53,-20 650.53,-20 650.53,-246 650.53,-246 650.53,-252 644.53,-258 638.53,-258 638.53,-258 20,-258 20,-258 14,-258 8,-252 8,-246 8,-246 8,-20 8,-20 8,-14 14,-8 20,-8"/>
<text text-anchor="middle" x="329.27" y="-245.9" font-family="Helvetica,sans-Serif" font-weight="bold" font-size="9.00">client</text>
</g>
<g id="clust2" class="cluster">
<title>cluster_client/src</title>
<path fill="#ffffff" stroke="black" stroke-width="2" d="M28,-16C28,-16 630.53,-16 630.53,-16 636.53,-16 642.53,-22 642.53,-28 642.53,-28 642.53,-219 642.53,-219 642.53,-225 636.53,-231 630.53,-231 630.53,-231 28,-231 28,-231 22,-231 16,-225 16,-219 16,-219 16,-28 16,-28 16,-22 22,-16 28,-16"/>
<text text-anchor="middle" x="329.27" y="-218.9" font-family="Helvetica,sans-Serif" font-weight="bold" font-size="9.00">src</text>
</g>
<g id="clust3" class="cluster">
<title>cluster_client/src/components</title>
<path fill="#ffffff" stroke="black" stroke-width="2" d="M360.52,-24C360.52,-24 622.53,-24 622.53,-24 628.53,-24 634.53,-30 634.53,-36 634.53,-36 634.53,-192 634.53,-192 634.53,-198 628.53,-204 622.53,-204 622.53,-204 360.52,-204 360.52,-204 354.52,-204 348.52,-198 348.52,-192 348.52,-192 348.52,-36 348.52,-36 348.52,-30 354.52,-24 360.52,-24"/>
<text text-anchor="middle" x="491.53" y="-191.9" font-family="Helvetica,sans-Serif" font-weight="bold" font-size="9.00">components</text>
</g>
<g id="clust4" class="cluster">
<title>cluster_client/src/components/layout</title>
<path fill="#ffffff" stroke="black" stroke-width="2" d="M462.52,-93C462.52,-93 602.03,-93 602.03,-93 608.03,-93 614.03,-99 614.03,-105 614.03,-105 614.03,-165 614.03,-165 614.03,-171 608.03,-177 602.03,-177 602.03,-177 462.52,-177 462.52,-177 456.52,-177 450.52,-171 450.52,-165 450.52,-165 450.52,-105 450.52,-105 450.52,-99 456.52,-93 462.52,-93"/>
<text text-anchor="middle" x="532.28" y="-164.9" font-family="Helvetica,sans-Serif" font-weight="bold" font-size="9.00">layout</text>
</g>
<g id="clust5" class="cluster">
<title>cluster_client/src/components/pages</title>
<path fill="#ffffff" stroke="black" stroke-width="2" d="M368.52,-89C368.52,-89 430.52,-89 430.52,-89 436.52,-89 442.52,-95 442.52,-101 442.52,-101 442.52,-165 442.52,-165 442.52,-171 436.52,-177 430.52,-177 430.52,-177 368.52,-177 368.52,-177 362.52,-177 356.52,-171 356.52,-165 356.52,-165 356.52,-101 356.52,-101 356.52,-95 362.52,-89 368.52,-89"/>
<text text-anchor="middle" x="399.52" y="-164.9" font-family="Helvetica,sans-Serif" font-weight="bold" font-size="9.00">pages</text>
</g>
<g id="clust6" class="cluster">
<title>cluster_client/src/components/pages/home</title>
<path fill="#ffffff" stroke="black" stroke-width="2" d="M376.52,-97C376.52,-97 422.52,-97 422.52,-97 428.52,-97 434.52,-103 434.52,-109 434.52,-109 434.52,-138 434.52,-138 434.52,-144 428.52,-150 422.52,-150 422.52,-150 376.52,-150 376.52,-150 370.52,-150 364.52,-144 364.52,-138 364.52,-138 364.52,-109 364.52,-109 364.52,-103 370.52,-97 376.52,-97"/>
<text text-anchor="middle" x="399.52" y="-137.9" font-family="Helvetica,sans-Serif" font-weight="bold" font-size="9.00">home</text>
</g>
<g id="clust7" class="cluster">
<title>cluster_client/src/components/shared</title>
<path fill="#ffffff" stroke="black" stroke-width="2" d="M543.53,-32C543.53,-32 614.53,-32 614.53,-32 620.53,-32 626.53,-38 626.53,-44 626.53,-44 626.53,-73 626.53,-73 626.53,-79 620.53,-85 614.53,-85 614.53,-85 543.53,-85 543.53,-85 537.53,-85 531.53,-79 531.53,-73 531.53,-73 531.53,-44 531.53,-44 531.53,-38 537.53,-32 543.53,-32"/>
<text text-anchor="middle" x="579.03" y="-72.9" font-family="Helvetica,sans-Serif" font-weight="bold" font-size="9.00">shared</text>
</g>
<g id="clust8" class="cluster">
<title>cluster_client/src/handlers</title>
<path fill="#ffffff" stroke="black" stroke-width="2" d="M36,-106C36,-106 118.02,-106 118.02,-106 124.02,-106 130.02,-112 130.02,-118 130.02,-118 130.02,-147 130.02,-147 130.02,-153 124.02,-159 118.02,-159 118.02,-159 36,-159 36,-159 30,-159 24,-153 24,-147 24,-147 24,-118 24,-118 24,-112 30,-106 36,-106"/>
<text text-anchor="middle" x="77.01" y="-146.9" font-family="Helvetica,sans-Serif" font-weight="bold" font-size="9.00">handlers</text>
</g>
<g id="clust9" class="cluster">
<title>cluster_client/src/init</title>
<path fill="#ffffff" stroke="black" stroke-width="2" d="M150.02,-91C150.02,-91 266.52,-91 266.52,-91 272.52,-91 278.52,-97 278.52,-103 278.52,-103 278.52,-163 278.52,-163 278.52,-169 272.52,-175 266.52,-175 266.52,-175 150.02,-175 150.02,-175 144.02,-175 138.02,-169 138.02,-163 138.02,-163 138.02,-103 138.02,-103 138.02,-97 144.02,-91 150.02,-91"/>
<text text-anchor="middle" x="208.27" y="-162.9" font-family="Helvetica,sans-Serif" font-weight="bold" font-size="9.00">init</text>
</g>
<g id="clust10" class="cluster">
<title>cluster_client/src/logic</title>
<path fill="#ffffff" stroke="black" stroke-width="2" d="M42.76,-30C42.76,-30 196.52,-30 196.52,-30 202.52,-30 208.52,-36 208.52,-42 208.52,-42 208.52,-71 208.52,-71 208.52,-77 202.52,-83 196.52,-83 196.52,-83 42.76,-83 42.76,-83 36.76,-83 30.76,-77 30.76,-71 30.76,-71 30.76,-42 30.76,-42 30.76,-36 36.76,-30 42.76,-30"/>
<text text-anchor="middle" x="119.64" y="-70.9" font-family="Helvetica,sans-Serif" font-weight="bold" font-size="9.00">logic</text>
</g>
<!-- client/src/components/layout/footer.js -->
<g id="node1" class="node">
<title>client/src/components/layout/footer.js</title>
<g id="a_node1"><a xlink:href="../client/src/components/layout/footer.js" xlink:title="footer.js">
<path fill="#ffffcc" stroke="black" d="M599.83,-119.3C599.83,-119.3 558.23,-119.3 558.23,-119.3 555.13,-119.3 552.03,-116.2 552.03,-113.1 552.03,-113.1 552.03,-106.9 552.03,-106.9 552.03,-103.8 555.13,-100.7 558.23,-100.7 558.23,-100.7 599.83,-100.7 599.83,-100.7 602.93,-100.7 606.03,-103.8 606.03,-106.9 606.03,-106.9 606.03,-113.1 606.03,-113.1 606.03,-116.2 602.93,-119.3 599.83,-119.3"/>
<text text-anchor="middle" x="579.03" y="-107.3" font-family="Helvetica,sans-Serif" font-size="9.00">footer.js</text>
</a>
</g>
</g>
<!-- client/src/components/layout/header.js -->
<g id="node2" class="node">
<title>client/src/components/layout/header.js</title>
<g id="a_node2"><a xlink:href="../client/src/components/layout/header.js" xlink:title="header.js">
<path fill="#ffffcc" stroke="black" d="M599.83,-150.3C599.83,-150.3 558.23,-150.3 558.23,-150.3 555.13,-150.3 552.03,-147.2 552.03,-144.1 552.03,-144.1 552.03,-137.9 552.03,-137.9 552.03,-134.8 555.13,-131.7 558.23,-131.7 558.23,-131.7 599.83,-131.7 599.83,-131.7 602.93,-131.7 606.03,-134.8 606.03,-137.9 606.03,-137.9 606.03,-144.1 606.03,-144.1 606.03,-147.2 602.93,-150.3 599.83,-150.3"/>
<text text-anchor="middle" x="579.03" y="-138.3" font-family="Helvetica,sans-Serif" font-size="9.00">header.js</text>
</a>
</g>
</g>
<!-- client/src/components/layout/page.js -->
<g id="node3" class="node">
<title>client/src/components/layout/page.js</title>
<g id="a_node3"><a xlink:href="../client/src/components/layout/page.js" xlink:title="page.js">
<path fill="#ffffcc" stroke="black" d="M511.82,-150.3C511.82,-150.3 470.22,-150.3 470.22,-150.3 467.12,-150.3 464.02,-147.2 464.02,-144.1 464.02,-144.1 464.02,-137.9 464.02,-137.9 464.02,-134.8 467.12,-131.7 470.22,-131.7 470.22,-131.7 511.82,-131.7 511.82,-131.7 514.92,-131.7 518.02,-134.8 518.02,-137.9 518.02,-137.9 518.02,-144.1 518.02,-144.1 518.02,-147.2 514.92,-150.3 511.82,-150.3"/>
<text text-anchor="middle" x="491.02" y="-138.3" font-family="Helvetica,sans-Serif" font-size="9.00">page.js</text>
</a>
</g>
</g>
<!-- client/src/components/layout/page.js&#45;&gt;client/src/components/layout/footer.js -->
<g id="edge1" class="edge">
<title>client/src/components/layout/page.js&#45;&gt;client/src/components/layout/footer.js</title>
<path fill="none" stroke="#000000" stroke-width="2" stroke-opacity="0.200000" d="M516.21,-131.68C521.26,-129.77 526.56,-127.8 531.53,-126 536.26,-124.29 541.28,-122.52 546.2,-120.8"/>
<polygon fill="#000000" fill-opacity="0.200000" stroke="#000000" stroke-width="2" stroke-opacity="0.200000" points="546.93,-122.77 551.91,-118.83 545.55,-118.8 546.93,-122.77"/>
</g>
<!-- client/src/components/layout/page.js&#45;&gt;client/src/components/layout/header.js -->
<g id="edge2" class="edge">
<title>client/src/components/layout/page.js&#45;&gt;client/src/components/layout/header.js</title>
<path fill="none" stroke="#000000" stroke-width="2" stroke-opacity="0.200000" d="M518.3,-141C526.97,-141 536.71,-141 545.77,-141"/>
<polygon fill="#000000" fill-opacity="0.200000" stroke="#000000" stroke-width="2" stroke-opacity="0.200000" points="545.92,-143.1 551.92,-141 545.92,-138.9 545.92,-143.1"/>
</g>
<!-- client/src/components/layout/showcase.js -->
<g id="node4" class="node">
<title>client/src/components/layout/showcase.js</title>
<g id="a_node4"><a xlink:href="../client/src/components/layout/showcase.js" xlink:title="showcase.js">
<path fill="#ffffcc" stroke="black" d="M517.33,-119.3C517.33,-119.3 464.72,-119.3 464.72,-119.3 461.62,-119.3 458.52,-116.2 458.52,-113.1 458.52,-113.1 458.52,-106.9 458.52,-106.9 458.52,-103.8 461.62,-100.7 464.72,-100.7 464.72,-100.7 517.33,-100.7 517.33,-100.7 520.43,-100.7 523.53,-103.8 523.53,-106.9 523.53,-106.9 523.53,-113.1 523.53,-113.1 523.53,-116.2 520.43,-119.3 517.33,-119.3"/>
<text text-anchor="middle" x="491.02" y="-107.3" font-family="Helvetica,sans-Serif" font-size="9.00">showcase.js</text>
</a>
</g>
</g>
<!-- client/src/components/shared/socialContact.js -->
<g id="node5" class="node">
<title>client/src/components/shared/socialContact.js</title>
<g id="a_node5"><a xlink:href="../client/src/components/shared/socialContact.js" xlink:title="socialContact.js">
<path fill="#ffffcc" stroke="black" d="M612.34,-58.3C612.34,-58.3 545.72,-58.3 545.72,-58.3 542.62,-58.3 539.52,-55.2 539.52,-52.1 539.52,-52.1 539.52,-45.9 539.52,-45.9 539.52,-42.8 542.62,-39.7 545.72,-39.7 545.72,-39.7 612.34,-39.7 612.34,-39.7 615.44,-39.7 618.54,-42.8 618.54,-45.9 618.54,-45.9 618.54,-52.1 618.54,-52.1 618.54,-55.2 615.44,-58.3 612.34,-58.3"/>
<text text-anchor="middle" x="579.03" y="-46.3" font-family="Helvetica,sans-Serif" font-size="9.00">socialContact.js</text>
</a>
</g>
</g>
<!-- client/src/components/layout/showcase.js&#45;&gt;client/src/components/shared/socialContact.js -->
<g id="edge3" class="edge">
<title>client/src/components/layout/showcase.js&#45;&gt;client/src/components/shared/socialContact.js</title>
<path fill="none" stroke="#000000" stroke-width="2" stroke-opacity="0.200000" d="M505.46,-100.47C519.98,-90.17 543.21,-73.7 559.46,-62.17"/>
<polygon fill="#000000" fill-opacity="0.200000" stroke="#000000" stroke-width="2" stroke-opacity="0.200000" points="561.01,-63.65 564.69,-58.46 558.58,-60.22 561.01,-63.65"/>
</g>
<!-- client/src/components/pages/home/index.js -->
<g id="node6" class="node">
<title>client/src/components/pages/home/index.js</title>
<g id="a_node6"><a xlink:href="../client/src/components/pages/home/index.js" xlink:title="index.js">
<path fill="#ffffcc" stroke="black" d="M420.32,-123.3C420.32,-123.3 378.72,-123.3 378.72,-123.3 375.62,-123.3 372.52,-120.2 372.52,-117.1 372.52,-117.1 372.52,-110.9 372.52,-110.9 372.52,-107.8 375.62,-104.7 378.72,-104.7 378.72,-104.7 420.32,-104.7 420.32,-104.7 423.42,-104.7 426.52,-107.8 426.52,-110.9 426.52,-110.9 426.52,-117.1 426.52,-117.1 426.52,-120.2 423.42,-123.3 420.32,-123.3"/>
<text text-anchor="middle" x="399.52" y="-111.3" font-family="Helvetica,sans-Serif" font-size="9.00">index.js</text>
</a>
</g>
</g>
<!-- client/src/components/pages/home/index.js&#45;&gt;client/src/components/layout/header.js -->
<g id="edge4" class="edge">
<title>client/src/components/pages/home/index.js&#45;&gt;client/src/components/layout/header.js</title>
<path fill="none" stroke="#000000" stroke-width="2" stroke-opacity="0.200000" d="M408.16,-123.53C417.06,-133.81 432.84,-149.56 450.52,-156 482.26,-167.56 521.1,-160.18 547.52,-152.23"/>
<polygon fill="#000000" fill-opacity="0.200000" stroke="#000000" stroke-width="2" stroke-opacity="0.200000" points="548.19,-154.22 553.29,-150.42 546.94,-150.21 548.19,-154.22"/>
</g>
<!-- client/src/components/pages/home/index.js&#45;&gt;client/src/components/layout/showcase.js -->
<g id="edge5" class="edge">
<title>client/src/components/pages/home/index.js&#45;&gt;client/src/components/layout/showcase.js</title>
<path fill="none" stroke="#000000" stroke-width="2" stroke-opacity="0.200000" d="M426.89,-112.82C434.78,-112.47 443.59,-112.08 452.07,-111.7"/>
<polygon fill="#000000" fill-opacity="0.200000" stroke="#000000" stroke-width="2" stroke-opacity="0.200000" points="452.57,-113.78 458.47,-111.41 452.38,-109.58 452.57,-113.78"/>
</g>
<!-- client/src/handlers/change&#45;greeting.js -->
<g id="node7" class="node">
<title>client/src/handlers/change&#45;greeting.js</title>
<g id="a_node7"><a xlink:href="../client/src/handlers/change-greeting.js" xlink:title="change&#45;greeting.js">
<path fill="#ffffcc" stroke="black" d="M115.83,-132.3C115.83,-132.3 38.19,-132.3 38.19,-132.3 35.09,-132.3 31.99,-129.2 31.99,-126.1 31.99,-126.1 31.99,-119.9 31.99,-119.9 31.99,-116.8 35.09,-113.7 38.19,-113.7 38.19,-113.7 115.83,-113.7 115.83,-113.7 118.93,-113.7 122.03,-116.8 122.03,-119.9 122.03,-119.9 122.03,-126.1 122.03,-126.1 122.03,-129.2 118.93,-132.3 115.83,-132.3"/>
<text text-anchor="middle" x="77.01" y="-120.3" font-family="Helvetica,sans-Serif" font-size="9.00">change&#45;greeting.js</text>
</a>
</g>
</g>
<!-- client/src/init/state.js -->
<g id="node8" class="node">
<title>client/src/init/state.js</title>
<g id="a_node8"><a xlink:href="../client/src/init/state.js" xlink:title="state.js">
<path fill="#ffffcc" stroke="black" d="M193.82,-148.3C193.82,-148.3 152.22,-148.3 152.22,-148.3 149.12,-148.3 146.02,-145.2 146.02,-142.1 146.02,-142.1 146.02,-135.9 146.02,-135.9 146.02,-132.8 149.12,-129.7 152.22,-129.7 152.22,-129.7 193.82,-129.7 193.82,-129.7 196.92,-129.7 200.02,-132.8 200.02,-135.9 200.02,-135.9 200.02,-142.1 200.02,-142.1 200.02,-145.2 196.92,-148.3 193.82,-148.3"/>
<text text-anchor="middle" x="173.02" y="-136.3" font-family="Helvetica,sans-Serif" font-size="9.00">state.js</text>
</a>
</g>
</g>
<!-- client/src/handlers/change&#45;greeting.js&#45;&gt;client/src/init/state.js -->
<g id="edge6" class="edge">
<title>client/src/handlers/change&#45;greeting.js&#45;&gt;client/src/init/state.js</title>
<path fill="none" stroke="#000000" stroke-width="2" stroke-opacity="0.200000" d="M122.26,-130.53C128.21,-131.54 134.21,-132.57 139.89,-133.53"/>
<polygon fill="#000000" fill-opacity="0.200000" stroke="#000000" stroke-width="2" stroke-opacity="0.200000" points="139.65,-135.62 145.91,-134.56 140.35,-131.48 139.65,-135.62"/>
</g>
<!-- client/src/logic/reverse.js -->
<g id="node9" class="node">
<title>client/src/logic/reverse.js</title>
<g id="a_node9"><a xlink:href="../client/src/logic/reverse.js" xlink:title="reverse.js">
<path fill="#ffffcc" stroke="black" d="M194.32,-56.3C194.32,-56.3 151.72,-56.3 151.72,-56.3 148.62,-56.3 145.52,-53.2 145.52,-50.1 145.52,-50.1 145.52,-43.9 145.52,-43.9 145.52,-40.8 148.62,-37.7 151.72,-37.7 151.72,-37.7 194.32,-37.7 194.32,-37.7 197.42,-37.7 200.52,-40.8 200.52,-43.9 200.52,-43.9 200.52,-50.1 200.52,-50.1 200.52,-53.2 197.42,-56.3 194.32,-56.3"/>
<text text-anchor="middle" x="173.02" y="-44.3" font-family="Helvetica,sans-Serif" font-size="9.00">reverse.js</text>
</a>
</g>
</g>
<!-- client/src/handlers/change&#45;greeting.js&#45;&gt;client/src/logic/reverse.js -->
<g id="edge7" class="edge">
<title>client/src/handlers/change&#45;greeting.js&#45;&gt;client/src/logic/reverse.js</title>
<path fill="none" stroke="#000000" stroke-width="2" stroke-opacity="0.200000" d="M92.51,-113.43C103.15,-106.23 117.82,-95.94 130.02,-86 139.73,-78.09 150.05,-68.53 158.03,-60.86"/>
<polygon fill="#000000" fill-opacity="0.200000" stroke="#000000" stroke-width="2" stroke-opacity="0.200000" points="159.82,-62.04 162.66,-56.35 156.9,-59.02 159.82,-62.04"/>
</g>
<!-- client/src/init/index.js -->
<g id="node10" class="node">
<title>client/src/init/index.js</title>
<g id="a_node10"><a xlink:href="../client/src/init/index.js" xlink:title="index.js">
<path fill="#ffffcc" stroke="black" d="M193.82,-117.3C193.82,-117.3 152.22,-117.3 152.22,-117.3 149.12,-117.3 146.02,-114.2 146.02,-111.1 146.02,-111.1 146.02,-104.9 146.02,-104.9 146.02,-101.8 149.12,-98.7 152.22,-98.7 152.22,-98.7 193.82,-98.7 193.82,-98.7 196.92,-98.7 200.02,-101.8 200.02,-104.9 200.02,-104.9 200.02,-111.1 200.02,-111.1 200.02,-114.2 196.92,-117.3 193.82,-117.3"/>
<text text-anchor="middle" x="173.02" y="-105.3" font-family="Helvetica,sans-Serif" font-size="9.00">index.js</text>
</a>
</g>
</g>
<!-- client/src/init/router.js -->
<g id="node11" class="node">
<title>client/src/init/router.js</title>
<g id="a_node11"><a xlink:href="../client/src/init/router.js" xlink:title="router.js">
<path fill="#ffffcc" stroke="black" d="M264.32,-117.3C264.32,-117.3 222.72,-117.3 222.72,-117.3 219.62,-117.3 216.52,-114.2 216.52,-111.1 216.52,-111.1 216.52,-104.9 216.52,-104.9 216.52,-101.8 219.62,-98.7 222.72,-98.7 222.72,-98.7 264.32,-98.7 264.32,-98.7 267.42,-98.7 270.52,-101.8 270.52,-104.9 270.52,-104.9 270.52,-111.1 270.52,-111.1 270.52,-114.2 267.42,-117.3 264.32,-117.3"/>
<text text-anchor="middle" x="243.52" y="-105.3" font-family="Helvetica,sans-Serif" font-size="9.00">router.js</text>
</a>
</g>
</g>
<!-- client/src/init/index.js&#45;&gt;client/src/init/router.js -->
<g id="edge8" class="edge">
<title>client/src/init/index.js&#45;&gt;client/src/init/router.js</title>
<path fill="none" stroke="#000000" stroke-width="2" stroke-opacity="0.200000" d="M200.31,-108C203.61,-108 207.01,-108 210.39,-108"/>
<polygon fill="#000000" fill-opacity="0.200000" stroke="#000000" stroke-width="2" stroke-opacity="0.200000" points="210.41,-110.1 216.41,-108 210.41,-105.9 210.41,-110.1"/>
</g>
<!-- client/src/routes.js -->
<g id="node12" class="node">
<title>client/src/routes.js</title>
<g id="a_node12"><a xlink:href="../client/src/routes.js" xlink:title="routes.js">
<path fill="#ffffcc" stroke="black" d="M334.32,-117.3C334.32,-117.3 292.72,-117.3 292.72,-117.3 289.62,-117.3 286.52,-114.2 286.52,-111.1 286.52,-111.1 286.52,-104.9 286.52,-104.9 286.52,-101.8 289.62,-98.7 292.72,-98.7 292.72,-98.7 334.32,-98.7 334.32,-98.7 337.42,-98.7 340.52,-101.8 340.52,-104.9 340.52,-104.9 340.52,-111.1 340.52,-111.1 340.52,-114.2 337.42,-117.3 334.32,-117.3"/>
<text text-anchor="middle" x="313.52" y="-105.3" font-family="Helvetica,sans-Serif" font-size="9.00">routes.js</text>
</a>
</g>
</g>
<!-- client/src/init/router.js&#45;&gt;client/src/routes.js -->
<g id="edge9" class="edge">
<title>client/src/init/router.js&#45;&gt;client/src/routes.js</title>
<path fill="none" stroke="#000000" stroke-width="2" stroke-opacity="0.200000" d="M270.62,-108C273.64,-108 276.75,-108 279.85,-108"/>
<polygon fill="#000000" fill-opacity="0.200000" stroke="#000000" stroke-width="2" stroke-opacity="0.200000" points="280.16,-110.1 286.16,-108 280.16,-105.9 280.16,-110.1"/>
</g>
<!-- client/src/routes.js&#45;&gt;client/src/components/layout/page.js -->
<g id="edge11" class="edge">
<title>client/src/routes.js&#45;&gt;client/src/components/layout/page.js</title>
<path fill="none" stroke="#000000" stroke-width="2" stroke-opacity="0.200000" d="M333.25,-98.52C360.35,-86.29 410.71,-69.36 442.52,-94 453.77,-102.71 441.14,-114.3 450.52,-125 452.77,-127.57 455.5,-129.74 458.46,-131.56"/>
<polygon fill="#000000" fill-opacity="0.200000" stroke="#000000" stroke-width="2" stroke-opacity="0.200000" points="457.7,-133.53 463.98,-134.48 459.66,-129.82 457.7,-133.53"/>
</g>
<!-- client/src/routes.js&#45;&gt;client/src/components/pages/home/index.js -->
<g id="edge12" class="edge">
<title>client/src/routes.js&#45;&gt;client/src/components/pages/home/index.js</title>
<path fill="none" stroke="#000000" stroke-width="2" stroke-opacity="0.200000" d="M340.64,-109.87C348.7,-110.44 357.67,-111.08 366.1,-111.68"/>
<polygon fill="#000000" fill-opacity="0.200000" stroke="#000000" stroke-width="2" stroke-opacity="0.200000" points="366.28,-113.8 372.42,-112.14 366.58,-109.61 366.28,-113.8"/>
</g>
<!-- client/src/logic/reverse.spec.js -->
<g id="node13" class="node">
<title>client/src/logic/reverse.spec.js</title>
<g id="a_node13"><a xlink:href="../client/src/logic/reverse.spec.js" xlink:title="reverse.spec.js">
<path fill="#ffffcc" stroke="black" d="M108.82,-56.3C108.82,-56.3 45.2,-56.3 45.2,-56.3 42.1,-56.3 39,-53.2 39,-50.1 39,-50.1 39,-43.9 39,-43.9 39,-40.8 42.1,-37.7 45.2,-37.7 45.2,-37.7 108.82,-37.7 108.82,-37.7 111.92,-37.7 115.02,-40.8 115.02,-43.9 115.02,-43.9 115.02,-50.1 115.02,-50.1 115.02,-53.2 111.92,-56.3 108.82,-56.3"/>
<text text-anchor="middle" x="77.01" y="-44.3" font-family="Helvetica,sans-Serif" font-size="9.00">reverse.spec.js</text>
</a>
</g>
</g>
<!-- client/src/logic/reverse.spec.js&#45;&gt;client/src/logic/reverse.js -->
<g id="edge10" class="edge">
<title>client/src/logic/reverse.spec.js&#45;&gt;client/src/logic/reverse.js</title>
<path fill="none" stroke="#000000" stroke-width="2" stroke-opacity="0.200000" d="M115.16,-47C123.02,-47 131.27,-47 138.96,-47"/>
<polygon fill="#000000" fill-opacity="0.200000" stroke="#000000" stroke-width="2" stroke-opacity="0.200000" points="139.28,-49.1 145.28,-47 139.28,-44.9 139.28,-49.1"/>
</g>
</g>
</svg>
